<svg width="24" height="25" viewBox="0 0 24 25" fill="none" xmlns="http://www.w3.org/2000/svg">
<g clip-path="url(#clip0_278_5947)">
<path d="M17.7705 10.5969C18.319 9.06875 19.8986 4.64844 19.8986 3.23281C19.8986 1.98594 19.1627 0.940625 17.8502 0.940625C15.7596 0.940625 13.8846 7.11406 13.2986 8.58594C12.844 7.25 10.7158 0.5 8.84083 0.5C7.38301 0.5 6.69864 1.57344 6.69864 2.92344C6.69864 4.57812 8.30176 8.86719 8.88301 10.5172C8.5877 10.4094 8.26895 10.3156 7.94551 10.3156C6.84864 10.3156 5.68145 11.6797 5.68145 12.7812C5.68145 13.1984 5.91114 13.7844 6.05645 14.1734C4.32676 14.6422 3.66114 15.7953 3.66114 17.5344C3.65645 20.9187 6.8627 24.5 11.3721 24.5C16.9033 24.5 20.344 20.3469 20.344 14.9891C20.344 12.9688 20.0205 11.1453 17.7705 10.5969ZM16.1111 5.5625C16.2986 4.98594 17.1002 2.54844 17.8502 2.54844C18.2533 2.54844 18.3611 2.96563 18.3611 3.29844C18.3611 4.19375 16.5518 9.13906 16.1533 10.2359L14.5596 9.95469L16.1111 5.5625ZM8.17051 2.76406C8.17051 2.20625 8.8502 0.621875 10.3408 4.97188L11.9627 9.67344C11.2315 9.6125 10.6643 9.53281 10.3033 9.73906C9.79239 8.38906 8.17051 4.12812 8.17051 2.76406ZM8.0627 11.9375C9.43614 11.9375 11.208 16.3719 11.208 16.9719C11.208 17.2109 10.9783 17.5062 10.7111 17.5062C9.73145 17.5062 7.10645 13.9016 7.10645 12.9266C7.11114 12.5656 7.70176 11.9375 8.0627 11.9375ZM16.7018 20.6703C15.3377 22.1703 13.594 22.9484 11.5596 22.9484C8.7752 22.9484 6.57676 21.4203 5.51739 18.8094C4.71583 16.775 5.69551 15.6078 6.48301 15.6078C7.01739 15.6078 9.02833 18.4344 9.02833 19.0344C9.02833 19.2641 8.66739 19.4234 8.47989 19.4234C7.7252 19.4234 7.42989 18.6969 6.08458 17.0141C4.69239 18.4062 7.04551 21.0875 8.81739 21.0875C10.0408 21.0875 10.8377 19.9531 10.5986 19.1188C10.7721 19.1188 10.9877 19.1328 11.1471 19.0906C11.1986 20.3609 11.5736 21.875 13.1018 21.9828C13.1018 21.9406 13.1955 21.65 13.1955 21.6359C13.1955 20.8203 12.6986 20.1078 12.6986 19.2781C12.6986 17.9516 13.7158 16.6672 14.7471 15.9172C15.1221 15.6359 15.5768 15.4625 16.0174 15.3031C16.4721 15.1297 16.9549 14.9281 17.3018 14.5812C17.2502 14.0562 17.0346 13.5922 16.5096 13.5922C15.2111 13.5922 10.8565 13.7797 10.8565 11.7313C10.8565 11.4172 10.8611 11.1172 11.6721 11.1172C13.1861 11.1172 17.0299 11.4922 18.1549 12.4813C19.0033 13.2359 19.294 17.7875 16.7018 20.6703ZM12.0799 14.7641C12.5346 14.9094 13.0033 14.9516 13.4721 15.0453C13.1252 15.2984 12.8158 15.6078 12.5205 15.9406C12.3893 15.5422 12.2299 15.1531 12.0799 14.7641Z" fill="#D6BBFB"/>
</g>
<defs>
<clipPath id="clip0_278_5947">
<rect width="24" height="24" fill="white" transform="translate(0 0.5)"/>
</clipPath>
</defs>
</svg>
